# xmcd CD database file generated by Grip 2.92
# 
# Track frame offsets:
#       150
#       13065
#       29004
#       41754
#       59793
#       73331
#       93659
#       111246
# 
# Disc length: 1658 seconds
# 
# Revision: 3
# Processed by: cddbd v1.4b41PL1 Copyright (c) Steve Scherf et al.
# Submitted via: Grip 2.92
# 
DISCID=7c067808
DTITLE=The Next of Kin Band - Next of Kin
DYEAR=1900
DGENRE=
TTITLE0=Southern Bound
TTITLE1=The Weight
TTITLE2=Cotton Field
TTITLE3=No Trouble
TTITLE4=Folsom Prison Blues
TTITLE5=Spirit in the Sky
TTITLE6=Long As I Can See The Light
TTITLE7=Girl
EXTD=
EXTT0=
EXTT1=
EXTT2=
EXTT3=
EXTT4=
EXTT5=
EXTT6=
EXTT7=
PLAYORDER=
